<svg width="184" height="32" viewBox="0 0 184 32" fill="none" xmlns="http://www.w3.org/2000/svg">
<g clip-path="url(#clip0_346_757)">
<path d="M57.9241 16.4446C58.6215 15.4594 58.9708 14.2869 58.9708 12.9263C58.9708 12.0087 58.8121 11.1703 58.4951 10.4105C58.1782 9.65138 57.7004 9.02257 57.0622 8.52412C56.4242 8.0258 55.6294 7.70153 54.6781 7.55107C54.4558 7.51149 54.2219 7.48559 53.9764 7.47397C53.7304 7.46186 53.5241 7.45605 53.3579 7.45605H46.4365V24.5427H48.9224V18.4079H53.4697L56.4496 24.5427H59.292L56.056 17.9191C56.8332 17.5912 57.4583 17.1022 57.9241 16.4446ZM48.9222 9.79396H53.2626C53.4213 9.79396 53.5976 9.80183 53.7918 9.81769C53.986 9.83354 54.1706 9.86526 54.3447 9.91222C54.8521 10.031 55.2606 10.2507 55.5697 10.571C55.8792 10.8916 56.1009 11.2589 56.2358 11.6745C56.3702 12.09 56.4379 12.5071 56.4379 12.9263C56.4379 13.3454 56.3702 13.7646 56.2358 14.1839C56.1009 14.6035 55.8791 14.9732 55.5697 15.2936C55.2607 15.6141 54.8521 15.8332 54.3447 15.9519C54.1706 15.9915 53.986 16.0195 53.7918 16.0353C53.5976 16.0512 53.4214 16.0586 53.2626 16.0586H48.9222V9.79396Z" fill="#090E24"/>
<path d="M70.2322 12.2796C69.3121 11.6746 68.1982 11.3721 66.8903 11.3721C65.6379 11.3721 64.5399 11.6529 63.5965 12.2146C62.6526 12.7764 61.9176 13.5709 61.3907 14.5994C60.8631 15.6279 60.5996 16.8422 60.5996 18.2422C60.5996 19.5632 60.8673 20.7242 61.4023 21.7246C61.9373 22.7256 62.6865 23.5044 63.65 24.0624C64.6131 24.6199 65.7326 24.8987 67.0094 24.8987C68.2539 24.8987 69.3835 24.5846 70.3984 23.9553C71.4132 23.3265 72.1704 22.439 72.6699 21.2918L70.2322 20.5205C69.9147 21.1772 69.4729 21.6814 68.9062 22.0336C68.3389 22.3852 67.667 22.5616 66.8903 22.5616C65.7087 22.5616 64.805 22.1757 64.179 21.4043C63.6612 20.7672 63.3608 19.9085 63.271 18.8358H72.8364C72.9312 17.301 72.7506 15.9759 72.2951 14.8608C71.839 13.7453 71.1517 12.8847 70.2322 12.2796ZM64.179 14.742C64.805 13.9585 65.741 13.5673 66.9855 13.5673C68.111 13.5673 68.9496 13.9231 69.5004 14.6349C69.9153 15.1708 70.1781 15.9265 70.2896 16.9013H63.3276C63.4592 16.0123 63.7406 15.2899 64.179 14.742Z" fill="#090E24"/>
<path d="M84.6698 13.8165C84.273 12.9702 83.6491 12.3509 82.7967 11.9591C81.9443 11.5679 80.9433 11.3721 79.794 11.3721C78.3114 11.3721 77.1246 11.6962 76.2325 12.3451C75.3404 12.994 74.7362 13.8677 74.4192 14.9675L76.7378 15.6792C76.9595 14.9596 77.3521 14.4432 77.915 14.1307C78.478 13.8187 79.0966 13.6624 79.7701 13.6624C80.8405 13.6624 81.5955 13.9052 82.0358 14.392C82.4195 14.8163 82.6297 15.4387 82.6664 16.2575C82.1794 16.3259 81.6944 16.3943 81.2029 16.4627C80.4066 16.5736 79.6472 16.6918 78.9255 16.8186C78.2044 16.9453 77.5583 17.0915 76.9874 17.2572C76.3292 17.4711 75.7747 17.7498 75.3228 18.0941C74.871 18.4383 74.5297 18.8554 74.3001 19.3459C74.07 19.8364 73.9551 20.406 73.9551 21.0544C73.9551 21.7507 74.1196 22.3896 74.4487 22.9708C74.7773 23.5521 75.263 24.0193 75.9053 24.3709C76.5477 24.723 77.3441 24.8989 78.2953 24.8989C79.4928 24.8989 80.5012 24.6597 81.3219 24.1814C81.9363 23.8228 82.4693 23.3237 82.9214 22.6838V24.543H85.1215V16.6522C85.1215 16.1142 85.0977 15.6121 85.05 15.1454C85.0025 14.6787 84.8757 14.2357 84.6698 13.8165ZM82.3867 20.3303C82.2915 20.75 82.0894 21.1534 81.7798 21.541C81.4708 21.9284 81.0624 22.2469 80.5554 22.496C80.0475 22.7452 79.4411 22.8698 78.7358 22.8698C78.2046 22.8698 77.7686 22.7869 77.4279 22.6205C77.0866 22.4542 76.8331 22.2309 76.6664 21.9501C76.5002 21.6698 76.4167 21.363 76.4167 21.0304C76.4167 20.6904 76.4939 20.4016 76.649 20.1646C76.8035 19.927 77.0135 19.7254 77.2792 19.5595C77.5448 19.3932 77.848 19.2506 78.1887 19.1319C78.5929 19.0058 79.0549 18.897 79.5739 18.8057C80.0935 18.7149 80.674 18.6219 81.3163 18.5269C81.728 18.466 82.1721 18.3997 82.6422 18.3291C82.6373 18.539 82.6296 18.7765 82.6184 19.0491C82.5983 19.5237 82.521 19.9507 82.3867 20.3303Z" fill="#090E24"/>
<path d="M90.3407 7.10059H87.8555V24.5431H90.3407V7.10059Z" fill="#090E24"/>
<path d="M97.6902 7.45605L92.125 24.5427H94.7055L95.9583 20.6866H102.987L104.254 24.5427H106.835L101.27 7.45605H97.6902ZM96.714 18.3609L99.4521 9.93316L102.222 18.3609H96.714Z" fill="#090E24"/>
<path d="M116.728 17.9514C116.094 17.6156 115.238 17.3089 114.16 17.0317C113.153 16.7789 112.392 16.5613 111.876 16.3792C111.361 16.1976 111.014 16.0075 110.836 15.81C110.657 15.612 110.568 15.3708 110.568 15.0862C110.568 14.5958 110.802 14.2098 111.27 13.9289C111.738 13.6486 112.348 13.5239 113.101 13.5552C113.886 13.5869 114.524 13.7807 115.016 14.137C115.507 14.4929 115.797 14.9791 115.884 15.5963L118.429 15.1333C118.334 14.3741 118.049 13.7116 117.573 13.146C117.097 12.5807 116.475 12.1435 115.706 11.8346C114.937 11.5263 114.061 11.3721 113.078 11.3721C112.071 11.3721 111.193 11.5304 110.444 11.8467C109.694 12.163 109.113 12.6101 108.701 13.1877C108.289 13.7647 108.083 14.4416 108.083 15.2166C108.083 15.8416 108.22 16.3734 108.493 16.8126C108.767 17.2513 109.227 17.6352 109.873 17.9636C110.519 18.292 111.393 18.5982 112.495 18.8828C113.501 19.1521 114.251 19.3775 114.743 19.5597C115.234 19.7412 115.557 19.9334 115.712 20.1351C115.866 20.3367 115.943 20.5996 115.943 20.9239C115.943 21.4778 115.724 21.9128 115.284 22.229C114.844 22.5457 114.235 22.7036 113.458 22.7036C112.602 22.7036 111.887 22.512 111.312 22.1281C110.737 21.7448 110.37 21.2206 110.212 20.5559L107.667 20.9478C107.889 22.198 108.491 23.1667 109.474 23.8547C110.458 24.5432 111.73 24.8874 113.292 24.8874C114.917 24.8874 116.192 24.5273 117.115 23.8077C118.039 23.0875 118.501 22.095 118.501 20.829C118.501 20.1727 118.364 19.6132 118.09 19.1502C117.816 18.6877 117.362 18.2876 116.728 17.9514Z" fill="#090E24"/>
<path d="M128.883 17.9514C128.248 17.6156 127.392 17.3089 126.314 17.0317C125.307 16.7789 124.546 16.5613 124.031 16.3792C123.516 16.1976 123.169 16.0075 122.991 15.81C122.812 15.612 122.723 15.3708 122.723 15.0862C122.723 14.5958 122.957 14.2098 123.425 13.9289C123.892 13.6486 124.502 13.5239 125.256 13.5552C126.041 13.5869 126.679 13.7807 127.17 14.137C127.662 14.4929 127.951 14.9791 128.039 15.5963L130.584 15.1333C130.488 14.3741 130.203 13.7116 129.728 13.146C129.252 12.5807 128.629 12.1435 127.86 11.8346C127.091 11.5263 126.215 11.3721 125.232 11.3721C124.225 11.3721 123.347 11.5304 122.598 11.8467C121.849 12.163 121.268 12.6101 120.856 13.1877C120.444 13.7647 120.238 14.4416 120.238 15.2166C120.238 15.8416 120.374 16.3734 120.648 16.8126C120.921 17.2513 121.381 17.6352 122.027 17.9636C122.673 18.292 123.547 18.5982 124.649 18.8828C125.656 19.1521 126.405 19.3775 126.897 19.5597C127.388 19.7412 127.712 19.9334 127.866 20.1351C128.02 20.3367 128.098 20.5996 128.098 20.9239C128.098 21.4778 127.878 21.9128 127.438 22.229C126.998 22.5457 126.389 22.7036 125.612 22.7036C124.756 22.7036 124.041 22.512 123.466 22.1281C122.891 21.7448 122.525 21.2206 122.366 20.5559L119.821 20.9478C120.043 22.198 120.646 23.1667 121.629 23.8547C122.612 24.5432 123.884 24.8874 125.446 24.8874C127.071 24.8874 128.346 24.5273 129.269 23.8077C130.193 23.0875 130.655 22.095 130.655 20.829C130.655 20.1727 130.518 19.6132 130.244 19.1502C129.971 18.6877 129.517 18.2876 128.883 17.9514Z" fill="#090E24"/>
<path d="M135.411 11.7285H132.926V24.5435H135.411V11.7285Z" fill="#090E24"/>
<path d="M135.411 7.21973H132.926V9.6282H135.411V7.21973Z" fill="#090E24"/>
<path d="M146.731 17.9514C146.097 17.6156 145.241 17.3089 144.162 17.0317C143.155 16.7789 142.395 16.5613 141.879 16.3792C141.364 16.1976 141.017 16.0075 140.839 15.81C140.66 15.612 140.571 15.3708 140.571 15.0862C140.571 14.5958 140.805 14.2098 141.273 13.9289C141.741 13.6486 142.351 13.5239 143.104 13.5552C143.889 13.5869 144.527 13.7807 145.019 14.137C145.51 14.4929 145.8 14.9791 145.887 15.5963L148.432 15.1333C148.337 14.3741 148.052 13.7116 147.576 13.146C147.1 12.5807 146.477 12.1435 145.709 11.8346C144.94 11.5263 144.064 11.3721 143.08 11.3721C142.074 11.3721 141.196 11.5304 140.447 11.8467C139.697 12.163 139.116 12.6101 138.704 13.1877C138.292 13.7647 138.086 14.4416 138.086 15.2166C138.086 15.8416 138.223 16.3734 138.496 16.8126C138.77 17.2513 139.23 17.6352 139.876 17.9636C140.522 18.292 141.396 18.5982 142.498 18.8828C143.504 19.1521 144.254 19.3775 144.746 19.5597C145.237 19.7412 145.56 19.9334 145.714 20.1351C145.869 20.3367 145.946 20.5996 145.946 20.9239C145.946 21.4778 145.727 21.9128 145.286 22.229C144.847 22.5457 144.238 22.7036 143.461 22.7036C142.605 22.7036 141.889 22.512 141.315 22.1281C140.74 21.7448 140.373 21.2206 140.215 20.5559L137.67 20.9478C137.892 22.198 138.494 23.1667 139.477 23.8547C140.46 24.5432 141.733 24.8874 143.295 24.8874C144.92 24.8874 146.194 24.5273 147.118 23.8077C148.042 23.0875 148.504 22.095 148.504 20.829C148.504 20.1727 148.366 19.6132 148.093 19.1502C147.819 18.6877 147.365 18.2876 146.731 17.9514Z" fill="#090E24"/>
<path d="M154.069 8.16895H151.571V11.7284H149.109V13.7219H151.571V19.5005C151.571 20.1968 151.581 20.8198 151.601 21.3694C151.62 21.9196 151.769 22.4592 152.047 22.9892C152.356 23.5827 152.816 24.0177 153.426 24.2943C154.036 24.571 154.73 24.7214 155.507 24.7452C156.284 24.7689 157.077 24.7018 157.886 24.5435V22.4433C157.045 22.5621 156.314 22.588 155.692 22.5204C155.069 22.4534 154.615 22.1746 154.33 21.6842C154.179 21.4228 154.098 21.1023 154.086 20.7227C154.075 20.3431 154.069 19.8965 154.069 19.3817V13.7221H157.886V11.7285H154.069V8.16895Z" fill="#090E24"/>
<path d="M16.9342 2.32363C16.9342 3.6069 15.8916 4.64725 14.6055 4.64725H6.78839C5.7307 4.64725 4.87342 5.50277 4.87342 6.55801V17.3969C4.87342 18.7397 3.7825 19.8282 2.43671 19.8282C1.09092 19.8282 0 18.7397 0 17.3969V5.81106C0 2.60166 2.60739 0 5.82387 0H14.6053C15.8914 0 16.9342 1.04035 16.9342 2.32363Z" fill="#1463FF"/>
<path d="M30.0413 11.8486V31.1399C30.0413 31.7492 29.4234 32.1647 28.8574 31.9362L22.1056 29.2091C21.8549 29.13 21.5936 29.0897 21.3306 29.0897H12.2673C10.849 29.0897 9.69922 27.9424 9.69922 26.5272V11.8486C9.69922 10.4334 10.849 9.28613 12.2673 9.28613H27.4732C28.8916 9.28613 30.0413 10.4334 30.0413 11.8486Z" fill="#1463FF"/>
</g>
<defs>
<clipPath id="clip0_346_757">
<rect width="184" height="32" fill="white"/>
</clipPath>
</defs>
</svg>
