<svg width="276" height="91" viewBox="0 0 276 91" fill="none" xmlns="http://www.w3.org/2000/svg">
<path d="M39.0909 15.3102L39.0163 20.8983C38.9364 26.7901 40.4493 32.3782 43.3845 37.0554C44.1516 38.2806 45.0146 39.4472 45.9415 40.5233C50.1286 45.3869 59.0728 49.2437 72.0389 46.3245L39.0909 15.3102Z" fill="#FFDCDC"/>
<path d="M30.4877 17.4144C31.4674 17.4144 32.2616 16.6202 32.2616 15.6405C32.2616 14.6608 31.4674 13.8666 30.4877 13.8666C29.508 13.8666 28.7138 14.6608 28.7138 15.6405C28.7138 16.6202 29.508 17.4144 30.4877 17.4144Z" fill="black"/>
<path d="M38.6594 9.95664C36.9068 8.31058 34.76 7.30376 32.4374 7.05871C28.5167 6.63788 24.8144 8.50235 22.7475 11.9117C20.5953 15.4702 20.6806 19.8224 22.9606 23.2903L43.7255 59.7595L44.7536 61.4322C44.45 61.5334 44.1357 61.6133 43.8161 61.6559C43.6935 61.6719 43.571 61.6825 43.4538 61.6879C42.0368 61.7731 40.8755 61.3363 39.4159 58.8965L35.7082 53.5374C35.2501 52.8769 34.8293 52.3602 34.3871 51.9233C32.235 49.8032 29.2891 48.6472 26.3486 48.7644L3.94289 48.7857L3 52.179L34.2167 71.0262C34.7121 71.3246 35.0157 71.8679 35.0157 72.4432V82H38.6701V72.4432C38.6701 70.5947 37.6846 68.8528 36.1024 67.8939L10.4952 52.4347L26.3539 52.4241H26.4817C28.4421 52.3442 30.3812 53.1113 31.8141 54.5283C32.0912 54.8 32.3735 55.1515 32.6984 55.6203L36.3049 60.8302C37.5514 62.9024 39.6822 65.5873 43.6722 65.3369C43.8746 65.3263 44.0718 65.305 44.2742 65.2783C44.9081 65.1984 45.5207 65.0439 46.1067 64.8362C46.1067 65.012 46.096 65.1931 46.0747 65.3742C45.9043 66.6367 45.2597 67.8034 44.2635 68.6504C42.9797 69.7424 42.2446 71.3352 42.2446 73.0292V81.8988H45.8989V73.0292C45.8989 72.4113 46.1653 71.8306 46.6287 71.4364C48.3174 70.0034 49.4095 68.0218 49.7025 65.827C49.841 64.7722 49.7557 63.7015 49.4681 62.6894C50.5175 61.6239 51.3112 60.2975 51.7108 58.8219C52.3394 56.5046 52.0038 54.0861 50.7359 51.8221C50.118 50.7194 49.223 48.9935 48.2322 47.0491C52.073 49.361 57.1764 50.9432 63.441 50.9432C67.2499 50.9432 71.4795 50.3572 76.1034 48.9988L76.8386 45.9144L38.6594 9.95664ZM46.1387 40.3529C45.2171 39.2822 44.3647 38.1262 43.6083 36.917C40.6997 32.2824 39.2028 26.7476 39.2827 20.9038L39.352 15.907L71.5062 46.1701C63.0894 47.9493 52.1636 47.3367 46.144 40.3476L46.1387 40.3529ZM48.1949 57.8577C48.0724 58.3105 47.8753 58.7367 47.6409 59.1362L46.8951 57.927L26.1142 21.4258L26.0449 21.314C24.2231 18.5865 24.7664 15.646 25.8798 13.8028C27.2222 11.5867 29.5288 10.4254 32.0539 10.6918C33.3164 10.825 34.5096 11.3097 35.5484 12.1035L35.4312 20.9091C35.3567 26.4759 36.5712 31.8083 38.9631 36.5228C40.2096 39.0851 45.4142 49.7659 47.5557 53.6014C48.3547 55.0344 48.5731 56.4673 48.1896 57.8577H48.1949Z" fill="black"/>
<path d="M95.7301 64V26.1818H109.912C112.817 26.1818 115.255 26.7235 117.224 27.8068C119.206 28.8902 120.702 30.3797 121.712 32.2756C122.733 34.1591 123.244 36.3011 123.244 38.7017C123.244 41.1269 122.733 43.2812 121.712 45.1648C120.69 47.0483 119.182 48.5317 117.188 49.6151C115.193 50.6861 112.737 51.2216 109.82 51.2216H100.42V45.5895H108.896C110.595 45.5895 111.986 45.294 113.07 44.7031C114.153 44.1122 114.953 43.2997 115.47 42.2656C116 41.2315 116.264 40.0436 116.264 38.7017C116.264 37.3598 116 36.178 115.47 35.1562C114.953 34.1345 114.147 33.3404 113.051 32.7741C111.968 32.1955 110.571 31.9062 108.859 31.9062H102.581V64H95.7301ZM141.05 64.554C138.206 64.554 135.75 63.9631 133.682 62.7812C131.626 61.5871 130.044 59.9006 128.936 57.7216C127.828 55.5303 127.275 52.9512 127.275 49.9844C127.275 47.0668 127.828 44.5062 128.936 42.3026C130.057 40.0866 131.62 38.3632 133.627 37.1321C135.633 35.8887 137.991 35.267 140.699 35.267C142.447 35.267 144.097 35.5502 145.648 36.1165C147.212 36.6705 148.59 37.5322 149.784 38.7017C150.991 39.8712 151.939 41.3608 152.628 43.1705C153.318 44.9678 153.662 47.1098 153.662 49.5966V51.6463H130.414V47.1406H147.255C147.242 45.8603 146.965 44.7216 146.424 43.7244C145.882 42.715 145.125 41.9209 144.152 41.3423C143.192 40.7637 142.072 40.4744 140.792 40.4744C139.425 40.4744 138.225 40.8068 137.191 41.4716C136.157 42.1241 135.35 42.9858 134.772 44.0568C134.205 45.1155 133.916 46.2789 133.904 47.5469V51.4801C133.904 53.1297 134.205 54.5455 134.809 55.7273C135.412 56.8968 136.255 57.7955 137.338 58.4233C138.422 59.0388 139.69 59.3466 141.142 59.3466C142.115 59.3466 142.995 59.2112 143.783 58.9403C144.571 58.6572 145.254 58.2448 145.833 57.7031C146.411 57.1615 146.848 56.4905 147.144 55.6903L153.385 56.392C152.991 58.0417 152.24 59.482 151.132 60.7131C150.037 61.9318 148.633 62.8797 146.922 63.5568C145.211 64.2216 143.254 64.554 141.05 64.554ZM166.002 26.1818V64H159.317V26.1818H166.002ZM172.876 64V35.6364H179.561V64H172.876ZM176.237 31.6108C175.178 31.6108 174.267 31.2599 173.504 30.5582C172.741 29.8442 172.359 28.9886 172.359 27.9915C172.359 26.982 172.741 26.1264 173.504 25.4247C174.267 24.7107 175.178 24.3537 176.237 24.3537C177.308 24.3537 178.219 24.7107 178.97 25.4247C179.733 26.1264 180.115 26.982 180.115 27.9915C180.115 28.9886 179.733 29.8442 178.97 30.5582C178.219 31.2599 177.308 31.6108 176.237 31.6108ZM198.807 64.554C195.975 64.554 193.544 63.9323 191.513 62.6889C189.494 61.4455 187.937 59.7282 186.841 57.5369C185.758 55.3333 185.216 52.7973 185.216 49.929C185.216 47.0483 185.77 44.5062 186.878 42.3026C187.986 40.0866 189.549 38.3632 191.568 37.1321C193.599 35.8887 196 35.267 198.77 35.267C201.072 35.267 203.109 35.6918 204.882 36.5412C206.667 37.3783 208.089 38.5663 209.148 40.1051C210.206 41.6316 210.81 43.4167 210.957 45.4602H204.568C204.31 44.0937 203.694 42.955 202.722 42.044C201.761 41.1207 200.475 40.6591 198.862 40.6591C197.496 40.6591 196.295 41.0284 195.261 41.767C194.227 42.4934 193.421 43.5398 192.842 44.9062C192.276 46.2727 191.993 47.91 191.993 49.8182C191.993 51.7509 192.276 53.4129 192.842 54.804C193.409 56.1828 194.203 57.2476 195.224 57.9986C196.259 58.7372 197.471 59.1065 198.862 59.1065C199.847 59.1065 200.727 58.9219 201.503 58.5526C202.291 58.1709 202.949 57.6231 203.479 56.9091C204.008 56.1951 204.371 55.3272 204.568 54.3054H210.957C210.797 56.312 210.206 58.0909 209.185 59.642C208.163 61.1809 206.772 62.3873 205.011 63.2614C203.251 64.1231 201.183 64.554 198.807 64.554ZM224.608 64.5724C222.811 64.5724 221.192 64.2524 219.752 63.6122C218.324 62.9598 217.191 61.9995 216.354 60.7315C215.529 59.4635 215.117 57.9001 215.117 56.0412C215.117 54.4408 215.412 53.1174 216.003 52.071C216.594 51.0246 217.4 50.1875 218.422 49.5597C219.444 48.9318 220.595 48.4579 221.875 48.1378C223.168 47.8054 224.504 47.5653 225.882 47.4176C227.544 47.2453 228.892 47.0914 229.926 46.956C230.961 46.8082 231.712 46.5866 232.179 46.2912C232.659 45.9834 232.9 45.5095 232.9 44.8693V44.7585C232.9 43.3674 232.487 42.2902 231.662 41.527C230.837 40.7637 229.65 40.3821 228.098 40.3821C226.461 40.3821 225.162 40.7391 224.202 41.4531C223.254 42.1671 222.614 43.0104 222.282 43.983L216.04 43.0966C216.533 41.3731 217.345 39.9328 218.478 38.7756C219.61 37.6061 220.995 36.732 222.632 36.1534C224.27 35.5625 226.079 35.267 228.061 35.267C229.428 35.267 230.788 35.4271 232.142 35.7472C233.497 36.0672 234.734 36.5966 235.854 37.3352C236.974 38.0616 237.873 39.0526 238.55 40.3082C239.239 41.5639 239.584 43.1335 239.584 45.017V64H233.158V60.1037H232.936C232.53 60.8916 231.958 61.6302 231.219 62.3196C230.493 62.9967 229.576 63.5445 228.468 63.9631C227.372 64.3693 226.086 64.5724 224.608 64.5724ZM226.344 59.6605C227.686 59.6605 228.849 59.3958 229.834 58.8665C230.819 58.3248 231.576 57.6108 232.105 56.7244C232.647 55.8381 232.918 54.8717 232.918 53.8253V50.483C232.709 50.6553 232.352 50.8153 231.847 50.9631C231.355 51.1108 230.801 51.2401 230.185 51.3509C229.569 51.4616 228.96 51.5601 228.357 51.6463C227.754 51.7325 227.23 51.8063 226.787 51.8679C225.79 52.0033 224.898 52.2249 224.11 52.5327C223.322 52.8404 222.7 53.2713 222.245 53.8253C221.789 54.367 221.561 55.0687 221.561 55.9304C221.561 57.1615 222.011 58.0909 222.909 58.7188C223.808 59.3466 224.953 59.6605 226.344 59.6605ZM252.99 47.3807V64H246.306V35.6364H252.695V40.456H253.027C253.68 38.8679 254.72 37.6061 256.148 36.6705C257.588 35.7348 259.367 35.267 261.485 35.267C263.442 35.267 265.147 35.6856 266.6 36.5227C268.065 37.3598 269.197 38.5724 269.998 40.1605C270.81 41.7486 271.21 43.6752 271.198 45.9403V64H264.513V46.9744C264.513 45.0786 264.021 43.5952 263.036 42.5241C262.063 41.4531 260.715 40.9176 258.992 40.9176C257.822 40.9176 256.782 41.1761 255.871 41.6932C254.972 42.1979 254.265 42.9304 253.748 43.8906C253.243 44.8509 252.99 46.0142 252.99 47.3807Z" fill="black"/>
</svg>
